<mxfile host="app.diagrams.net" modified="2021-10-24T12:45:49.598Z" agent="5.0 (Windows NT 10.0; Win64; x64) AppleWebKit/537.36 (KHTML, like Gecko) Chrome/94.0.4606.81 Safari/537.36" etag="tE-CWGTD_4D2sYo1JV5Y" version="15.5.9" type="github">
  <diagram id="Wr4s08uyT-qvl8gvXiOg" name="Page-1">
    <mxGraphModel dx="1038" dy="527" grid="1" gridSize="10" guides="1" tooltips="1" connect="1" arrows="1" fold="1" page="1" pageScale="1" pageWidth="827" pageHeight="1169" math="0" shadow="0">
      <root>
        <mxCell id="0" />
        <mxCell id="1" parent="0" />
        <mxCell id="kOY58Y0KntewSXWVwahC-1" value="Teacher" style="whiteSpace=wrap;html=1;aspect=fixed;" vertex="1" parent="1">
          <mxGeometry x="90" y="90" width="80" height="80" as="geometry" />
        </mxCell>
      </root>
    </mxGraphModel>
  </diagram>
</mxfile>
